<?xml version="1.0" standalone="no"?>
<!DOCTYPE svg PUBLIC "-//W3C//DTD SVG 1.0//EN" "http://www.w3.org/TR/2001/REC-SVG-20010904/DTD/svg10.dtd">
<svg xmlns="http://www.w3.org/2000/svg" xmlns:xlink="http://www.w3.org/1999/xlink" id="body_1" width="555" height="386">

<g transform="matrix(0.69961566 0 0 0.69961566 0.10239737 -0)">
    <path d="M0 539.7315C 0 533.10406 70.739006 527.7315 158 527.7315C 245.26099 527.7315 316 533.10406 316 539.7315C 316 546.35895 245.26099 551.7315 158 551.7315C 70.739006 551.7315 0 546.35895 0 539.7315" stroke="none" fill="#E6E6E6" fill-rule="nonzero" />
    <path transform="matrix(1 0 0 1 -203.5 -174.13425)"  d="M324.27228 296.55377C 351.76904 284.85846 386.0167 292.2685 419.4632 297.41135C 419.77444 291.18335 423.54706 283.60352 419.59518 279.2585C 414.79404 273.9797 415.23602 268.43323 418.1251 262.85477C 425.51297 248.58977 414.9282 233.41101 404.2408 220.79007C 399.35516 215.0334 392.01617 211.95305 384.48544 212.49828L384.48544 212.49828L364.68793 213.91238C 354.82263 214.61705 346.43118 221.37158 343.635 230.8585C 338.90778 237.28767 336.37766 243.69905 337.97064 250.07704C 330.88998 254.91586 329.70035 260.7568 332.88214 267.34143C 335.58014 271.48737 335.55142 275.52304 332.7594 279.44702C 329.09265 284.44983 326.2842 290.02808 324.44928 295.95312L324.44928 295.95312L324.27228 296.55377z" stroke="none" fill="#2F2E41" fill-rule="nonzero" />
    <path transform="matrix(1 0 0 1 -203.5 -174.13425)"  d="M977.70886 651.0973L417.2911 651.0973C 412.3074 651.0973 407.52783 649.1175 404.0038 645.59344C 400.4798 642.06946 398.50003 637.28986 398.5 632.30615C 601.65137 608.6961 800.9847 608.6961 996.5 632.30615C 996.5 637.28986 994.5202 642.06946 990.99615 645.59344C 987.47217 649.1175 982.69257 651.0973 977.70886 651.0973z" stroke="none" fill="#2F2E41" fill-rule="nonzero" />
    <path transform="matrix(1 0 0 1 -203.5 -174.13425)"  d="M996.5 633.4115L398.5 632.30615L467.8061 515.6906L468.1377 515.13794L468.1377 258.13058C 468.13718 251.83041 470.63965 245.78815 475.09454 241.33325C 479.54944 236.87837 485.5917 234.37587 491.89188 234.3764L491.89188 234.3764L899.792 234.3764C 906.09216 234.37589 912.1344 236.87839 916.5893 241.33327C 921.0442 245.78816 923.5467 251.83043 923.54614 258.13058L923.54614 258.13058L923.54614 516.9065L996.5 633.4115z" stroke="none" fill="#3F3D56" fill-rule="nonzero" />
    <path transform="matrix(1 0 0 1 -203.5 -174.13425)"  d="M491.35028 250.95679C 487.07895 250.96158 483.61755 254.42297 483.61276 258.6943L483.61276 258.6943L483.61276 493.03073C 483.61774 497.30197 487.079 500.76324 491.35028 500.76825L491.35028 500.76825L903.6497 500.76825C 907.9209 500.7631 911.3821 497.3019 911.38727 493.03073L911.38727 493.03073L911.38727 258.6943C 911.38226 254.42305 907.92096 250.96175 903.6497 250.95677L903.6497 250.95677L491.35028 250.95679z" stroke="none" fill="#FFFFFF" fill-rule="nonzero" />
    <path transform="matrix(1 0 0 1 -203.5 -174.13425)"  d="M493.07794 531.7183C 491.78363 531.7205 490.60822 532.4735 490.0652 533.6484L490.0652 533.6484L468.7098 580.0735C 468.2374 581.10016 468.32037 582.29675 468.93 583.24835C 469.5396 584.19995 470.5919 584.7756 471.72202 584.7756L471.72202 584.7756L920.8141 584.7756C 921.9634 584.7756 923.0307 584.1804 923.6348 583.2027C 924.2389 582.225 924.2936 581.00415 923.77936 579.9763L923.77936 579.9763L900.5668 533.5513C 900.0081 532.42535 898.85834 531.71466 897.6015 531.7184L897.6015 531.7184L493.07794 531.7183z" stroke="none" fill="#2F2E41" fill-rule="nonzero" />
    <path d="M497.31607 67.97967C 497.3161 69.35323 496.83047 70.52565 495.8592 71.4969C 494.88794 72.46816 493.7155 72.95379 492.34195 72.95379C 490.9684 72.95379 489.79602 72.46816 488.8247 71.4969C 487.85345 70.52565 487.36786 69.35323 487.36783 67.97967C 487.36786 66.6061 487.85345 65.43369 488.8247 64.46243C 489.79602 63.49118 490.9684 63.00555 492.34195 63.005547C 493.7155 63.00555 494.88794 63.49118 495.8592 64.46243C 496.83047 65.43369 497.3161 66.6061 497.31607 67.97967C 497.3161 68.03755 497.3151 68.09541 497.31305 68.15326" stroke="none" fill="#FFFFFF" fill-rule="nonzero" />
    <path transform="matrix(1 0 0 1 -203.5 -174.13425)"  d="M651.6999 593.6185C 650.2013 593.6204 648.88965 594.6257 648.4982 596.07214L648.4982 596.07214L643.1414 615.9686C 642.873 616.96484 643.0835 618.0292 643.71094 618.84814C 644.33844 619.66705 645.3114 620.1473 646.3431 620.1472L646.3431 620.1472L748.2171 620.1472C 749.28973 620.1472 750.2961 619.6283 750.9181 618.75446C 751.54016 617.88055 751.7009 616.75977 751.3497 615.7463L751.3497 615.7463L744.46277 595.8498C 744 594.5146 742.74225 593.6191 741.3291 593.6186L741.3291 593.6186L651.6999 593.6185z" stroke="none" fill="#2F2E41" fill-rule="nonzero" />
    <path d="M720.046 337.135L720.046 341.556L264.306 341.556L264.649 341.004L264.649 337.135L720.046 337.135L720.046 337.135" stroke="none" fill="#2F2E41" fill-rule="nonzero" />
    <path d="M784.70984 77.37523C 784.70984 98.741806 777.15564 116.979324 762.0471 132.08777C 746.9387 147.19623 728.7012 154.75046 707.3346 154.75046C 685.968 154.75046 667.7305 147.19623 652.6221 132.08777C 637.5136 116.979324 629.95935 98.741806 629.95935 77.37523C 629.95935 56.00865 637.5136 37.771133 652.6221 22.662682C 667.7305 7.5542274 685.968 0 707.3346 0C 728.7012 0 746.9387 7.5542274 762.0471 22.662682C 777.15564 37.771133 784.70984 56.00865 784.70984 77.37523C 784.70984 78.27562 784.69415 79.17574 784.6627 80.075584" stroke="none" fill="#24A0ED" fill-rule="nonzero" />
    <path transform="matrix(1 0 0 1 -203.5 -174.13425)"  d="M942.89 285.223L878.7791 285.223C 876.3382 285.22058 874.36005 283.24246 874.35767 280.80154L874.35767 280.80154L874.35767 242.1139C 874.3603 239.6731 876.3383 237.69508 878.7791 237.69247L878.7791 237.69247L942.89 237.69247C 945.3308 237.69508 947.30884 239.67311 947.31146 242.11392L947.31146 242.11392L947.31146 280.80154C 947.309 283.24246 945.3309 285.22058 942.89 285.223zM878.7791 242.11394L878.7791 280.80154L942.89325 280.80154L942.89 242.1139z" stroke="none" fill="#FFFFFF" fill-rule="nonzero" />
    <path transform="matrix(1 0 0 1 -203.5 -174.13425)"  d="M930.7311 242.1139L890.9381 242.1139L890.9381 224.42815C 890.9381 211.61827 899.306 202.32094 910.8346 202.32094C 922.36316 202.32094 930.7311 211.61829 930.7311 224.42815L930.7311 224.42815L930.7311 242.1139zM895.35956 237.69247L926.30963 237.69247L926.30963 224.42815C 926.30963 214.01515 919.9462 206.74239 910.83466 206.74239C 901.7231 206.74239 895.3596 214.0152 895.3596 224.42815z" stroke="none" fill="#FFFFFF" fill-rule="nonzero" />
    <path d="M711.75604 86.21811C 711.75604 87.43906 711.32434 88.4812 710.461 89.344536C 709.59766 90.207886 708.55554 90.63956 707.3346 90.63955C 706.11365 90.63956 705.07153 90.207886 704.2082 89.344536C 703.34485 88.4812 702.91315 87.43906 702.91315 86.21811C 702.91315 84.99716 703.34485 83.95502 704.2082 83.09168C 705.07153 82.22834 706.11365 81.79667 707.3346 81.79667C 708.55554 81.79667 709.59766 82.22834 710.461 83.09168C 711.32434 83.95502 711.75604 84.99716 711.75604 86.21811C 711.75604 86.26956 711.7551 86.321 711.75336 86.37241" stroke="none" fill="#FFFFFF" fill-rule="nonzero" />
    <path transform="matrix(1 0 0 1 -203.5 -174.13425)"  d="M856.81995 421.28372L538.18005 421.28372C 534.9227 421.27994 532.2831 418.64032 532.2793 415.383L532.2793 415.383L532.2793 336.342C 532.2831 333.08472 534.9227 330.4451 538.18005 330.44128L538.18005 330.44128L856.81995 330.44128C 860.0773 330.4451 862.7169 333.08472 862.7207 336.342L862.7207 336.342L862.7207 415.383C 862.7169 418.64032 860.0773 421.27994 856.81995 421.28372zM538.18005 332.80164C 536.22565 332.80377 534.6418 334.38763 534.63965 336.34207L534.63965 336.34207L534.63965 415.383C 534.6418 417.33743 536.22565 418.92126 538.18005 418.92343L538.18005 418.92343L856.81995 418.92343C 858.77435 418.92126 860.3582 417.33743 860.36035 415.383L860.36035 415.383L860.36035 336.342C 860.3582 334.38757 858.77435 332.8037 856.81995 332.80157z" stroke="none" fill="#E6E6E6" fill-rule="nonzero" />
    <path d="M408.22665 198.69547C 408.22668 205.33296 405.87997 210.99841 401.18655 215.6918C 396.49316 220.38522 390.82773 222.73192 384.19022 222.73192C 377.55273 222.73192 371.88727 220.38522 367.19388 215.6918C 362.5005 210.99841 360.15378 205.33296 360.15378 198.69547C 360.15378 192.05798 362.5005 186.39255 367.19388 181.69913C 371.88727 177.00572 377.55273 174.65903 384.19022 174.65901C 390.82773 174.65903 396.49316 177.00572 401.18655 181.69913C 405.87997 186.39255 408.22668 192.05798 408.22665 198.69547C 408.22668 198.97517 408.2218 199.25479 408.21204 199.53433" stroke="none" fill="#E6E6E6" fill-rule="nonzero" />
    <path transform="matrix(1 0 0 1 -203.5 -174.13425)"  d="M643.203 356.80542C 641.76996 356.8027 640.44464 357.56567 639.72736 358.80627C 639.01 360.04688 639.01 361.5761 639.72736 362.8167C 640.44464 364.0573 641.76996 364.82028 643.203 364.81757L643.203 364.81757L832.0607 364.81757C 834.2732 364.81757 836.0668 363.024 836.0668 360.8115C 836.0668 358.599 834.2732 356.80542 832.0607 356.80542L832.0607 356.80542L643.203 356.80542z" stroke="none" fill="#E6E6E6" fill-rule="nonzero" />
    <path transform="matrix(1 0 0 1 -203.5 -174.13425)"  d="M643.203 380.84186C 641.7718 380.84186 640.4493 381.6054 639.73364 382.8449C 639.018 384.08438 639.018 385.61148 639.73364 386.85098C 640.4493 388.09045 641.7718 388.854 643.203 388.854L643.203 388.854L724.469 388.854C 725.9002 388.854 727.2227 388.09045 727.93835 386.85095C 728.654 385.61148 728.654 384.08438 727.93835 382.84488C 727.2227 381.6054 725.9002 380.84186 724.469 380.84186L724.469 380.84186L643.203 380.84186z" stroke="none" fill="#E6E6E6" fill-rule="nonzero" />
    <path transform="matrix(1 0 0 1 -203.5 -174.13425)"  d="M467.022 382.4624L408.1189 413.778L407.3733 387.68173C 426.59882 384.47226 444.88998 378.88434 461.8027 369.78714L461.8027 369.78714L467.9632 354.56705C 469.32886 351.19302 472.37134 348.78824 475.96954 348.23877C 479.56775 347.68933 483.18924 349.07648 485.49963 351.88916C 488.94763 356.0867 488.55035 362.23874 484.59116 365.958L484.59116 365.958L467.022 382.4624z" stroke="none" fill="#FFB8B8" fill-rule="nonzero" />
    <path transform="matrix(1 0 0 1 -203.5 -174.13425)"  d="M323.09818 563.2671C 322.22903 560.0794 322.7637 556.67224 324.56744 553.904L324.56744 553.904L337.50674 534.0462C 343.84686 524.31616 356.52686 520.9708 366.84174 526.30695C 361.40375 535.5634 362.1618 543.6837 368.7198 550.7406C 358.53928 555.7105 349.13007 562.12506 340.78372 569.7855C 337.6922 571.89307 333.77252 572.3761 330.2618 571.08215C 326.75107 569.78815 324.08246 566.8769 323.09818 563.2671z" stroke="none" fill="#2F2E41" fill-rule="nonzero" />
    <path transform="matrix(1 0 0 1 -203.5 -174.13425)"  d="M469.70474 537.30273C 465.72296 543.9391 458.57288 548.0232 450.8339 548.08185L450.8339 548.08185L364.87363 548.7331L361.14563 527.1105L399.17163 515.92633L367.11047 491.32126L402.154 450.31277L465.804 509.6371C 473.4706 516.7826 475.09677 528.3159 469.70474 537.30273z" stroke="none" fill="#2F2E41" fill-rule="nonzero" />
    <path transform="matrix(1 0 0 1 -203.5 -174.13425)"  d="M351.45267 685.1794L331.32123 685.1794C 313.24612 561.2817 294.8474 437.03754 349.21582 390.6641L349.21582 390.6641L413.33813 401.1026L405.13647 455.532L369.3473 496.54047L351.45267 685.1794z" stroke="none" fill="#2F2E41" fill-rule="nonzero" />
    <path transform="matrix(1 0 0 1 -203.5 -174.13425)"  d="M369.14917 713.2459C 365.96155 714.11523 362.55435 713.58075 359.78598 711.77716L359.78598 711.77716L337.92743 708.83905C 328.19702 702.4995 324.85098 689.8197 330.18643 679.5045C 339.44324 684.942 347.5635 684.1834 354.61996 677.625C 359.6059 687.6924 367.8209 687.0783 375.66653 695.55994C 377.77426 698.65137 378.25754 702.57104 376.9638 706.08185C 375.67004 709.59265 372.7589 712.2614 369.14917 713.2459z" stroke="none" fill="#2F2E41" fill-rule="nonzero" />
    <path transform="matrix(1 0 0 1 -203.5 -174.13425)"  d="M399.1716 307.90158L361.89117 298.95428C 368.08286 286.2804 368.5927 272.1781 365.61917 257.20023L365.61917 257.20023L390.96985 256.45462C 391.76422 275.08 394.16733 292.4808 399.1716 307.90158z" stroke="none" fill="#FFB8B8" fill-rule="nonzero" />
    <path transform="matrix(1 0 0 1 -203.5 -174.13425)"  d="M409.4175 423.55243C 382.27878 442.0455 363.10333 424.18515 348.4702 396.62897C 350.5036 379.7671 347.2112 359.58835 341.1135 337.66263C 335.4918 317.6149 346.1332 296.59702 365.61917 289.26138L365.61917 289.26138L397.68033 302.68237C 424.90396 324.87274 430.26233 348.90936 420.04858 374.26077L420.04858 374.26077L409.4175 423.55243z" stroke="none" fill="#24A0ED" fill-rule="nonzero" />
    <path transform="matrix(1 0 0 1 -203.5 -174.13425)"  d="M331.32123 326.54178L301.4969 342.19955L354.4351 373.5151L361.8011 391.68463C 362.79468 394.13547 362.7374 396.88693 361.64267 399.2943C 360.54794 401.70166 358.512 403.55338 356.01184 404.4155C 353.1611 405.39853 350.0146 404.99048 347.5089 403.3128C 345.00323 401.63513 343.4273 398.88132 343.25024 395.87106L343.25024 395.87106L342.50534 383.208L275.22156 361.00433C 270.62814 359.48853 266.9873 355.944 265.3489 351.39285C 262.92493 344.65958 265.35043 337.1387 271.25153 333.09027L271.25153 333.09027L325.35638 295.97183L331.32123 326.54178z" stroke="none" fill="#FFB8B8" fill-rule="nonzero" />
    <path transform="matrix(1 0 0 1 -203.5 -174.13425)"  d="M361.14557 329.52423C 348.70697 324.07312 337.39624 329.99466 323.11957 334.7435L323.11957 334.7435L320.88275 295.22626C 335.05887 287.67056 348.57483 285.63345 361.1456 291.49826L361.1456 291.49826L361.14557 329.52423z" stroke="none" fill="#24A0ED" fill-rule="nonzero" />
    <path d="M196.32707 78.09251C 196.32709 84.665276 194.00325 90.27549 189.35559 94.92314C 184.70795 99.5708 179.09775 101.89462 172.52496 101.894615C 165.9522 101.89462 160.34198 99.5708 155.69434 94.92314C 151.04669 90.27549 148.72287 84.665276 148.72285 78.09251C 148.72287 71.51974 151.04669 65.90953 155.69434 61.26187C 160.34198 56.614223 165.9522 54.290398 172.52496 54.290398C 179.09775 54.290398 184.70795 56.614223 189.35559 61.26187C 194.00325 65.90953 196.32709 71.51974 196.32707 78.09251C 196.32709 78.369484 196.32225 78.64638 196.31258 78.92319" stroke="none" fill="#FFB8B8" fill-rule="nonzero" />
    <path transform="matrix(1 0 0 1 -203.5 -174.13425)"  d="M404.5 249.22353C 380.93384 251.53163 362.97662 247.67746 351.5 236.70346L351.5 236.70346L351.5 227.86575L402.5 227.86575L404.5 249.22353z" stroke="none" fill="#2F2E41" fill-rule="nonzero" />
</g>
</svg>