<?xml version="1.0" standalone="no"?>
<!DOCTYPE svg PUBLIC "-//W3C//DTD SVG 1.0//EN" "http://www.w3.org/TR/2001/REC-SVG-20010904/DTD/svg10.dtd">
<svg xmlns="http://www.w3.org/2000/svg" xmlns:xlink="http://www.w3.org/1999/xlink" id="body_1" width="577" height="466">

<g transform="matrix(0.71983284 0 0 0.71983284 -0 0.068582706)">
	<g transform="matrix(1 0 0 1 -231.222 -125)">
        <path transform="matrix(1 0 0 1 -0.099 0.231)"  d="M1001.142 124.77L760.527 124.77C 736.6112 124.768814 715.887 141.33983 710.62695 164.67L710.62695 164.67L589.051 703.938C 586.36664 715.8445 589.0809 728.3287 596.4666 738.0458C 603.8523 747.7628 615.1545 753.7196 627.34503 754.32L627.34503 754.32L874.7 766.507C 902.0988 767.8566 926.24744 748.673 931.13 721.679L931.13 721.679L1000.1 340.412L1005.23096 341.878L1018.43097 269.61298L1013.14996 268.29297L1032.401 161.86697C 1034.0713 152.63747 1031.5406 143.1438 1025.4982 135.97012C 1019.4557 128.79646 1010.5301 124.68944 1001.151 124.766975L1001.151 124.766975L1001.142 124.77z" stroke="none" fill="#3F3D56" fill-rule="nonzero" />
        <path transform="matrix(1 0 0 1 -0.099 0.231)"  d="M792.2 136.395L764.116 136.395C 747.4974 136.39519 733.1229 147.97142 729.58 164.20801L729.58 164.20801L612.88 699.076C 611.5197 705.30774 612.94385 711.8229 616.7803 716.91864C 620.6167 722.0144 626.48413 725.1844 632.849 725.6L632.849 725.6L879.4 741.76C 893.8004 742.7039 906.6144 732.6858 909.17303 718.48303L909.17303 718.48303L1008.75305 165.64502C 1010.0576 158.40146 1008.0836 150.95227 1003.363 145.30539C 998.6424 139.65852 991.66113 136.39519 984.301 136.39502L984.301 136.39502L957.658 136.39502C 952.3561 136.39487 947.7137 139.95244 946.335 145.07202C 945.11786 149.59337 941.01733 152.73479 936.335 152.73302L936.335 152.73302L809.847 152.73302C 800.60004 152.73273 792.91156 145.61455 792.2 136.395z" stroke="none" fill="#FFFFFF" fill-rule="nonzero" />
        <path transform="matrix(1 0 0 1 -0.099 0.231)"  d="M928.494 510.313C 929.48486 510.3471 930.3512 509.65018 930.53 508.675L930.53 508.675L985.05304 207.758C 985.15814 207.17923 985.0059 206.58339 984.63605 206.12599C 984.26935 205.672 983.7196 205.40482 983.13605 205.39699L983.13605 205.39699L735.077 202.467L735.054 202.467C 734.1266 202.47484 733.3278 203.123 733.129 204.02899L733.129 204.02899L668.853 495.179C 668.7259 495.75397 668.8559 496.35577 669.20905 496.827C 669.5589 497.29465 670.09875 497.58237 670.68207 497.612L670.68207 497.612L928.494 510.313z" stroke="none" fill="#E6E6E6" fill-rule="nonzero" />
        <path transform="matrix(1 0 0 1 -0.099 0.465)"  d="M713.229 529.535C 712.76447 529.5354 712.3614 529.8556 712.256 530.308L712.256 530.308L709.933 540.264C 709.86646 540.54865 709.9278 540.8482 710.1009 541.0838C 710.274 541.3194 710.5415 541.4674 710.833 541.48895L710.833 541.48895L842.063 550.816C 842.56635 550.84796 843.016 550.50336 843.11597 550.009L843.11597 550.009L845.35 538.49C 845.40466 538.2072 845.3347 537.9146 845.15814 537.68713C 844.98157 537.4596 844.71545 537.3193 844.428 537.302L844.428 537.302L713.29 529.537L713.229 529.535z" stroke="none" fill="#E6E6E6" fill-rule="nonzero" />
        <path transform="matrix(1 0 0 1 -0.099 0.454)"  d="M872.666 587.808C 873.15485 587.84717 873.5999 587.5261 873.71704 587.05L873.71704 587.05L876.56104 575.50696C 876.6317 575.2205 876.5723 574.91754 876.39874 574.6791C 876.2252 574.44055 875.95526 574.29083 875.661 574.26996L875.661 574.26996L708.072 562.549C 707.6031 562.5117 707.1728 562.8099 707.043 563.262L707.043 563.262L704.088 573.237C 704.0027 573.5258 704.052 573.83765 704.22235 574.08594C 704.3927 574.3343 704.66583 574.4926 704.966 574.517L704.966 574.517L872.666 587.808z" stroke="none" fill="#E6E6E6" fill-rule="nonzero" />
        <path transform="matrix(1 0 0 1 -0.099 0.454)"  d="M863.666 624.808C 864.15485 624.84717 864.5999 624.5261 864.71704 624.05L864.71704 624.05L867.56104 612.50696C 867.6317 612.2205 867.5723 611.91754 867.39874 611.6791C 867.2252 611.44055 866.95526 611.29083 866.661 611.26996L866.661 611.26996L699.072 599.549C 698.6031 599.5117 698.1728 599.8099 698.043 600.262L698.043 600.262L695.088 610.237C 695.0027 610.5258 695.052 610.83765 695.22235 611.08594C 695.3927 611.3343 695.66583 611.4926 695.966 611.517L695.966 611.517L863.666 624.808z" stroke="none" fill="#E6E6E6" fill-rule="nonzero" />
        <path transform="matrix(1 0 0 1 64.123 3.512)"  d="M508.877 752.008C 508.877 760.377 432.272 761.268 337.988 767.161C 243.78801 773.04803 167.099 760.377 167.099 752.008C 167.099 743.639 244.146 726.801 337.988 736.855C 432.272 746.957 508.877 743.639 508.877 752.008z" stroke="none" fill="#E6E6E6" fill-rule="nonzero" />
        <path transform="matrix(1 0 0 1 -0.099 0.231)"  d="M786.481 688.283C 786.9747 688.3342 787.4298 688.0117 787.54504 687.529L787.54504 687.529L793.55804 663.47797C 793.62946 663.19336 793.5723 662.8918 793.4018 662.6531C 793.2312 662.41437 792.9644 662.2626 792.67206 662.238L792.67206 662.238L689.75604 653.582C 689.2599 653.5478 688.8117 653.8772 688.69604 654.36096L688.69604 654.36096L683.567 677.444C 683.50464 677.7242 683.56573 678.0177 683.7347 678.2498C 683.9036 678.48193 684.1642 678.63025 684.45 678.657L684.45 678.657L786.481 688.283z" stroke="none" fill="#24A0ED" fill-rule="nonzero" />
        <path transform="matrix(1 0 0 1 55.741 19.97)"  d="M315.09 570.537C 317.71335 568.73944 319.40546 565.8719 319.71082 562.7064C 320.01617 559.54095 318.90335 556.4029 316.672 554.13696L316.672 554.13696L320.839 461.11896L299.624 463.5L300.857 554.485C 297.21542 558.573 297.20886 564.7392 300.8417 568.835C 304.47455 572.93085 310.59744 573.6604 315.091 570.53296L315.091 570.53296L315.09 570.537z" stroke="none" fill="#A0616A" fill-rule="nonzero" />
        <path transform="matrix(1 0 0 1 340 173)"  d="M69.534 574.966L81.60899 577.089L93.54299 531.52496L77.72199 528.39197L69.534 574.966z" stroke="none" fill="#A0616A" fill-rule="nonzero" />
        <path transform="matrix(-0.9848956 -0.17314957 0.17314957 -0.9848956 661.936 1542.365)"  d="M350.232 727.314L388.763 727.314L388.763 742.2L365.119 742.2C 361.17072 742.2 357.38412 740.63153 354.5923 737.83966C 351.8004 735.0478 350.232 731.2612 350.232 727.313L350.232 727.313L350.232 727.314z" stroke="none" fill="#2F2E41" fill-rule="nonzero" />
        <path transform="matrix(1 0 0 1 340 173)"  d="M36.392 581.01L48.652 581.01L54.484 533.722L36.39 533.722L36.392 581.01z" stroke="none" fill="#A0616A" fill-rule="nonzero" />
        <path transform="matrix(-1 5.260308E-05 -5.260308E-05 -1 730.354 1495.915)"  d="M318.024 730.536L356.555 730.536L356.555 745.42303L332.911 745.42303C 328.96277 745.42303 325.17618 743.85455 322.38434 741.0627C 319.59247 738.2708 318.02405 734.48425 318.02402 730.536L318.02402 730.536L318.024 730.536z" stroke="none" fill="#2F2E41" fill-rule="nonzero" />
        <path transform="matrix(1 0 0 1 55.741 19.97)"  d="M371.8 717.09C 371.6088 717.0902 371.4178 717.07886 371.228 717.056L371.228 717.056L356.798 715.869C 355.47037 715.71295 354.26483 715.0191 353.4629 713.9495C 352.66095 712.87994 352.3328 711.5283 352.555 710.21L352.555 710.21L366.88 639.52905L357.88 592.05505C 357.72836 591.2573 357.01184 590.6936 356.2009 590.7339C 355.38995 590.7742 354.73285 591.4062 354.661 592.215L354.661 592.215L341.4 712.842C 341.14276 715.4833 338.8386 717.4456 336.19 717.279L336.19 717.279L322.595 716.773C 320.12964 716.59814 318.18274 714.6105 318.059 712.142L318.059 712.142L319.145 566.374L389.62598 557.564L394.55 633.60504L394.53 633.68604L376.539 713.361C 376.00626 715.5469 374.04977 717.08636 371.8 717.09z" stroke="none" fill="#2F2E41" fill-rule="nonzero" />
        <path transform="matrix(1 0 0 1 373.568 371.694)"  d="M49.122 24.561C 49.122 31.343334 46.724087 37.13242 41.928253 41.928253C 37.13242 46.724087 31.343334 49.122 24.561 49.122C 17.778667 49.122 11.989584 46.724087 7.1937504 41.928253C 2.3979168 37.13242 0 31.343334 0 24.561C 0 17.778667 2.3979168 11.989584 7.1937504 7.1937504C 11.989584 2.3979168 17.778667 0 24.561 0C 31.343334 0 37.13242 2.3979168 41.928253 7.1937504C 46.724087 11.989584 49.122 17.778667 49.122 24.561C 49.122 24.846811 49.117016 25.132534 49.10704 25.418167" stroke="none" fill="#A0616A" fill-rule="nonzero" />
        <path transform="matrix(1 0 0 1 55.741 19.97)"  d="M365.53 577.467C 361.68863 577.4898 357.92108 576.4119 354.673 574.36096C 342.773 566.925 329.262 569.87994 322.266 572.30396C 320.85934 572.79663 319.3047 572.6195 318.04498 571.82294C 316.7998 571.041 315.9806 569.7326 315.82098 568.27094L315.82098 568.27094L303.1 454.646C 300.96802 435.608 312.436 417.70898 330.368 412.086C 331.04202 411.8747 331.72702 411.67468 332.423 411.486C 343.71915 408.4234 355.7916 410.51883 365.39502 417.20898C 375.17758 423.9723 381.46335 434.72 382.562 446.56198L382.562 446.56198L393.273 560.949C 393.42096 562.45026 392.85556 563.9339 391.746 564.956C 387.99 568.428 377.092 577.466 365.53 577.467z" stroke="none" fill="#24A0ED" fill-rule="nonzero" />
        <path transform="matrix(1 0 0 1 55.741 19.97)"  d="M326.789 479.012L298.089 475.856C 296.43637 475.67432 294.94473 474.78226 294.00278 473.41226C 293.06085 472.04227 292.76193 470.3301 293.184 468.722L293.184 468.722L300.49 440.87598C 301.07565 435.19644 304.66544 430.2686 309.89185 427.9697C 315.11823 425.6708 321.17648 426.35486 325.75867 429.76123C 330.34088 433.1676 332.7415 438.77182 332.046 444.43896L332.046 444.43896L333.13098 473.11395C 333.19382 474.77563 332.5302 476.38235 331.31308 477.51538C 330.09595 478.6484 328.4459 479.19543 326.79297 479.01395L326.79297 479.01395L326.789 479.012z" stroke="none" fill="#24A0ED" fill-rule="nonzero" />
        <path transform="matrix(1 0 0 1 55.741 19.97)"  d="M393.156 566.554C 395.54248 564.45337 396.87595 561.40356 396.7976 558.2252C 396.71924 555.0469 395.2371 552.06647 392.75 550.086L392.75 550.086L385.677 457.244L364.888 461.92398L377.088 552.338C 373.9654 556.8351 374.7018 562.9573 378.80176 566.5856C 382.90173 570.21387 389.06802 570.2003 393.152 566.554L393.152 566.554L393.156 566.554z" stroke="none" fill="#A0616A" fill-rule="nonzero" />
        <path transform="matrix(1 0 0 1 55.741 19.97)"  d="M356.919 473.176C 355.70145 472.04388 355.03766 470.43738 355.101 468.776L355.101 468.776L356.186 440.101C 355.54953 434.46408 357.96866 428.91577 362.53217 425.5461C 367.09567 422.17645 373.1102 421.49734 378.31018 423.76462C 383.51013 426.0319 387.10553 430.9011 387.742 436.53802L387.742 436.53802L395.048 464.38403C 395.47006 465.99216 395.17114 467.7043 394.22922 469.0743C 393.28726 470.4443 391.79562 471.33636 390.143 471.51804L390.143 471.51804L361.443 474.67404C 359.7898 474.85605 358.13937 474.30835 356.923 473.17404L356.923 473.17404L356.919 473.176z" stroke="none" fill="#24A0ED" fill-rule="nonzero" />
        <path transform="matrix(1 0 0 1 55.741 19.97)"  d="M340.927 401.771C 340.4893 401.77087 340.05307 401.7202 339.627 401.62L339.627 401.62L339.502 401.59C 317.90802 398.29 313.135 385.77798 312.088 380.555C 311.004 375.147 312.238 369.927 315.028 367.899C 313.50702 363.099 313.751 358.83798 315.755 355.237C 319.255 348.957 326.836 346.837 327.855 346.573C 333.91302 342.104 341.161 345.087 342.48 345.692C 354.199 341.357 358.68002 344.965 359.488 345.771C 364.726 346.712 367.919 348.735 368.979 351.787C 370.97 357.51797 364.674 364.64697 364.405 364.948L364.405 364.948L364.26498 365.104L354.88498 365.551C 353.08496 365.6369 351.40594 366.48264 350.26547 367.87787C 349.12497 369.27313 348.63013 371.08682 348.904 372.86798C 349.1577 374.00418 349.4783 375.1245 349.86398 376.223C 351.464 381.229 352.66397 385.50598 351.11798 387.132C 350.4023 387.77383 349.3829 387.95053 348.49298 387.58698C 347.02597 387.19498 346.03098 387.27698 345.53497 387.83197C 344.76498 388.69098 344.99997 390.86697 346.19696 393.95697C 346.96243 395.94885 346.55954 398.201 345.15097 399.80396C 344.09775 401.0461 342.5535 401.7649 340.92496 401.77097L340.92496 401.77097L340.927 401.771z" stroke="none" fill="#2F2E41" fill-rule="nonzero" />
	</g>
</g>
</svg>